<?xml version="1.0" encoding="UTF-8"?>
<svg version="1.1" xmlns="http://www.w3.org/2000/svg" width="512" height="512">
<path d="M0 0 C12.93966722 9.99971294 22.33388578 22.70897146 28.0625 38.0625 C28.454375 39.07441406 28.84625 40.08632813 29.25 41.12890625 C34.74695649 57.90607553 34.30284682 78.57895232 28.0625 95.0625 C27.711875 96.08730469 27.36125 97.11210938 27 98.16796875 C22.09662641 111.32875967 13.16483537 121.5621654 3.33547974 131.31764221 C2.27876814 132.38113121 1.22292005 133.44547875 0.16784942 134.51059574 C-2.70051244 137.40124589 -5.58098717 140.2795401 -8.46384645 143.15572226 C-11.58355782 146.27253761 -14.69172637 149.40083079 -17.80151367 152.52754211 C-23.88131806 158.63658254 -29.97199048 164.73467204 -36.06704293 170.82849587 C-41.02161059 175.78222889 -45.97280397 180.73931013 -50.92166519 185.69874382 C-66.49796942 201.30767659 -82.08602359 216.90477902 -97.68303265 232.49302154 C-109.97640228 244.7804028 -122.25145368 257.08590323 -134.51822327 269.39983488 C-147.13092378 282.06064699 -159.75660044 294.70838707 -172.39612305 307.34242386 C-179.48538631 314.42911274 -186.56929252 321.52096764 -193.63940048 328.62677193 C-199.65430255 334.67180506 -205.68125443 340.70449771 -211.72407018 346.72163261 C-214.80472216 349.78987311 -217.87951845 352.863423 -220.93925858 355.95252991 C-223.74334124 358.78323276 -226.5632539 361.5971171 -229.39634086 364.39878225 C-230.4151454 365.41187736 -231.42815056 366.43084756 -232.43445884 367.45635623 C-238.76285473 373.89721511 -244.17727022 377.75095968 -252.9375 380.0625 C-254.36655176 380.47699268 -254.36655176 380.47699268 -255.82447326 380.89985895 C-258.62524776 381.70727675 -261.4379126 382.45340488 -264.2578125 383.19116211 C-265.3310527 383.47632187 -266.40429291 383.76148163 -267.51005554 384.05528259 C-271.02628494 384.98827232 -274.54435475 385.91410719 -278.0625 386.83984375 C-280.5348653 387.49431822 -283.00711266 388.14923831 -285.47924805 388.80458069 C-291.3130642 390.34991681 -297.14805392 391.89073942 -302.98364735 393.42934471 C-309.55530019 395.1622923 -316.12539562 396.90110734 -322.69537354 398.64039218 C-330.74248349 400.77058908 -338.78997756 402.89933017 -346.83837891 405.02464294 C-347.96566406 405.32247964 -349.09294922 405.62031633 -350.25439453 405.92717838 C-352.44264082 406.50406582 -354.63142948 407.07890052 -356.82080078 407.65150356 C-361.71830327 408.93421258 -366.6038445 410.24140016 -371.47021484 411.63796997 C-372.3272551 411.87875306 -373.18429535 412.11953615 -374.06730652 412.3676157 C-375.62382946 412.80652003 -377.17700682 413.25760273 -378.72529602 413.72472286 C-385.22377872 415.53581596 -391.13670134 415.4364767 -397.25 412.4375 C-400.91007921 409.2030114 -403.52017874 406.00944046 -404.21237183 401.12147522 C-404.31744709 394.52590357 -402.68269288 388.91137229 -400.6328125 382.68359375 C-400.28200119 381.5826387 -399.93118988 380.48168365 -399.56974792 379.34736633 C-398.41297746 375.72749715 -397.23789678 372.1138596 -396.0625 368.5 C-395.24909192 365.9674833 -394.43671255 363.43465999 -393.62573242 360.90136719 C-391.93371543 355.62225628 -390.23288631 350.34605909 -388.52587891 345.07177734 C-386.19876986 337.8804525 -383.89057832 330.68317738 -381.58862305 323.48376656 C-373.43720079 297.99377563 -373.43720079 297.99377563 -369.88525391 287.09570312 C-368.58535701 283.10094115 -367.33168058 279.09576128 -366.11083984 275.07617188 C-365.5257644 273.20180785 -364.94064304 271.32745816 -364.35546875 269.453125 C-364.11218338 268.61738953 -363.86889801 267.78165405 -363.61824036 266.92059326 C-360.27334112 256.38306667 -351.29071602 249.2650693 -343.66099548 241.63209534 C-342.6294049 240.59648142 -341.59802286 239.56065973 -340.56682974 238.52465004 C-337.75011878 235.69606588 -334.93033496 232.87056308 -332.10997689 230.04561603 C-329.06172823 226.9913763 -326.01628925 223.93433688 -322.97039795 220.87774658 C-315.62485509 213.50776648 -308.27444073 206.14265459 -300.92313489 198.77842346 C-298.84483905 196.69641049 -296.76667119 194.61426986 -294.68854833 192.53208423 C-281.76467632 179.5829795 -268.83920659 166.63547191 -255.90894222 153.69274998 C-252.91917432 150.70005275 -249.92942263 147.70733933 -246.93969727 144.71459961 C-246.19668381 143.97084011 -245.45367036 143.22708061 -244.68814135 142.46078294 C-232.65232386 130.41231185 -220.62683122 118.35358972 -208.60553318 106.29063369 C-196.24549822 93.88812049 -183.87600102 81.4951073 -171.49731833 69.11120552 C-164.55451995 62.16500064 -157.61590921 55.2147237 -150.6879406 48.25372505 C-144.78845234 42.32615474 -138.88043361 36.40725423 -132.96130931 30.49928922 C-129.94562289 27.48876768 -126.93402647 24.47444757 -123.93339729 21.44891167 C-121.17858468 18.67142564 -118.41215437 15.90605506 -115.63659138 13.14930963 C-114.64229263 12.15778563 -113.65207868 11.16214175 -112.66677415 10.16167945 C-103.49863243 0.86134867 -93.05156284 -7.0263482 -80.625 -11.375 C-80.00044922 -11.60380859 -79.37589844 -11.83261719 -78.73242188 -12.06835938 C-51.81628843 -21.62813246 -23.03017256 -16.06980007 0 0 Z M-75.9375 23.0625 C-72.0057924 27.76995077 -67.91492714 32.2266171 -63.56494141 36.54858398 C-62.95934387 37.15432755 -62.35374634 37.76007111 -61.72979736 38.38417053 C-59.75191659 40.36136146 -57.77053086 42.33499876 -55.7890625 44.30859375 C-54.40736361 45.68842516 -53.02588712 47.0684793 -51.6446228 48.44874573 C-48.02685087 52.0627185 -44.40608481 55.67367673 -40.78466797 59.28399658 C-37.08248223 62.97591203 -33.38316229 66.67069663 -29.68359375 70.36523438 C-22.43768369 77.60045303 -15.18860445 84.83248741 -7.9375 92.0625 C-0.09870806 81.88212881 0.3201077 69.41292312 -0.9375 57.0625 C-3.42555608 43.8713861 -11.23420717 32.94024637 -21.9375 25.0625 C-39.29592068 14.0600059 -57.94757445 13.78423131 -75.9375 23.0625 Z M-102.56640625 47.59375 C-103.20449219 48.2434375 -103.84257812 48.893125 -104.5 49.5625 C-105.14066406 50.2121875 -105.78132813 50.861875 -106.44140625 51.53125 C-106.93511719 52.0365625 -107.42882812 52.541875 -107.9375 53.0625 C-103.95215059 57.83886699 -99.79268055 62.3483377 -95.38134766 66.73217773 C-94.75624298 67.35742844 -94.13113831 67.98267914 -93.48709106 68.62687683 C-91.44427921 70.66899851 -89.39796093 72.70756673 -87.3515625 74.74609375 C-85.92502317 76.17076572 -84.49870616 77.59566032 -83.07260132 79.02076721 C-79.33646155 82.75310687 -75.59732738 86.48243237 -71.85754395 90.21112061 C-68.03471303 94.02368329 -64.21474613 97.83911322 -60.39453125 101.65429688 C-52.91164133 109.12649371 -45.42558224 116.59550678 -37.9375 124.0625 C-36.76210004 123.13597299 -35.59739423 122.19586613 -34.4375 121.25 C-33.7878125 120.72792969 -33.138125 120.20585937 -32.46875 119.66796875 C-30.59240872 118.07045167 -30.59240872 118.07045167 -30.9375 115.0625 C-32.98278586 112.72954039 -35.05023193 110.56174852 -37.25561523 108.38793945 C-37.92700531 107.714505 -38.59839539 107.04107056 -39.29013062 106.347229 C-41.51825956 104.11608412 -43.75696728 101.89588484 -45.99609375 99.67578125 C-47.54127665 98.13365429 -49.08587095 96.59093736 -50.62989807 95.0476532 C-53.86957931 91.81257998 -57.11411784 88.58248808 -60.36254883 85.35620117 C-64.53722108 81.20983524 -68.70314476 77.05481848 -72.86592007 72.89651203 C-76.0557338 69.7108446 -79.24836963 66.52801924 -82.44206429 63.3462429 C-83.97960673 61.81441799 -85.51666826 60.28211022 -87.05325127 58.74932289 C-89.19621712 56.61319231 -91.34253505 54.48049313 -93.48999023 52.34887695 C-94.13159592 51.70838913 -94.7732016 51.06790131 -95.43424988 50.40800476 C-98.70869906 46.12306003 -98.70869906 46.12306003 -102.56640625 47.59375 Z M-133.27998406 78.28078556 C-133.85677924 78.85796046 -134.43357442 79.43513536 -135.02784824 80.02980042 C-135.69168445 80.69164557 -136.35552066 81.35349073 -137.03947312 82.03539181 C-137.77584045 82.77467198 -138.51220779 83.51395216 -139.27088928 84.27563477 C-140.04761866 85.05150971 -140.82434803 85.82738466 -141.62461466 86.62677097 C-144.2496084 89.25010607 -146.87099139 91.87702056 -149.49243164 94.50390625 C-151.36426223 96.37601866 -153.23628947 98.24793245 -155.10856628 100.11959839 C-159.1508334 104.16133999 -163.19125891 108.20491514 -167.2304554 112.24972534 C-173.07052904 118.09791031 -178.91334714 123.94334692 -184.75684863 129.78810656 C-194.23642083 139.26986986 -203.71375561 148.7538663 -213.18969727 158.23925781 C-222.39718767 167.45592084 -231.60572302 176.67153775 -240.81567383 185.88574219 C-241.66657348 186.73703593 -241.66657348 186.73703593 -242.53466303 187.60552752 C-245.38034875 190.45251823 -248.22605511 193.29948832 -251.07177174 196.14644814 C-274.69688278 219.78193359 -298.31836848 243.42103918 -321.9375 267.0625 C-320.23895963 270.68333128 -318.22645218 273.00505354 -315.3671875 275.828125 C-314.47128906 276.71757812 -313.57539063 277.60703125 -312.65234375 278.5234375 C-311.71519531 279.44382812 -310.77804687 280.36421875 -309.8125 281.3125 C-308.85761363 282.25734856 -307.90318141 283.20265633 -306.94921875 284.1484375 C-304.61640913 286.45768338 -302.27905914 288.76213203 -299.9375 291.0625 C-296.92743657 289.7121271 -294.83582352 288.21002128 -292.50924301 285.88033867 C-291.84640045 285.2214782 -291.18355789 284.56261774 -290.50062919 283.8837918 C-289.78078227 283.15811921 -289.06093536 282.43244661 -288.3192749 281.68478394 C-287.54814936 280.91536724 -286.77702382 280.14595055 -285.98253083 279.3532182 C-283.39210195 276.76609142 -280.80890001 274.17186644 -278.22558594 271.57763672 C-276.37323223 269.72471905 -274.52043838 267.87224131 -272.66723633 266.02017212 C-268.67412911 262.02811378 -264.68470111 258.0324089 -260.69774628 254.03420639 C-254.93327028 248.25347872 -249.16328184 242.47827929 -243.39193156 236.70441569 C-234.02853003 227.33663653 -224.66960385 217.96439942 -215.31347656 208.58935547 C-206.22467376 199.48219562 -197.13377348 190.37713797 -188.04003906 181.27490234 C-187.47953479 180.71387262 -186.91903051 180.1528429 -186.34154126 179.57481228 C-183.52965282 176.76031377 -180.71772303 173.94585656 -177.90577269 171.1314199 C-154.57660155 147.78151416 -131.25468747 124.42437271 -107.9375 101.0625 C-108.89037388 99.94425701 -109.84418396 98.82681174 -110.79838562 97.70970154 C-111.32943751 97.08733832 -111.86048941 96.46497511 -112.40763378 95.8237524 C-114.26362741 93.68704711 -116.20762082 91.66291058 -118.20703125 89.66015625 C-118.95017578 88.91572266 -119.69332031 88.17128906 -120.45898438 87.40429688 C-121.59303711 86.27604492 -121.59303711 86.27604492 -122.75 85.125 C-123.52537109 84.34576172 -124.30074219 83.56652344 -125.09960938 82.76367188 C-126.2046582 81.66055664 -126.2046582 81.66055664 -127.33203125 80.53515625 C-128.00081299 79.86750244 -128.66959473 79.19984863 -129.35864258 78.51196289 C-131.32945517 76.60950521 -131.32945517 76.60950521 -133.27998406 78.28078556 Z M-86.27998406 125.28078556 C-86.85677924 125.85796046 -87.43357442 126.43513536 -88.02784824 127.02980042 C-88.69168445 127.69164557 -89.35552066 128.35349073 -90.03947312 129.03539181 C-90.77584045 129.77467198 -91.51220779 130.51395216 -92.27088928 131.27563477 C-93.04761866 132.05150971 -93.82434803 132.82738466 -94.62461466 133.62677097 C-97.2496084 136.25010607 -99.87099139 138.87702056 -102.49243164 141.50390625 C-104.36426223 143.37601866 -106.23628947 145.24793245 -108.10856628 147.11959839 C-112.1508334 151.16133999 -116.19125891 155.20491514 -120.2304554 159.24972534 C-126.07052904 165.09791031 -131.91334714 170.94334692 -137.75684863 176.78810656 C-147.23642083 186.26986986 -156.71375561 195.7538663 -166.18969727 205.23925781 C-175.39718767 214.45592084 -184.60572302 223.67153775 -193.81567383 232.88574219 C-194.66657348 233.73703593 -194.66657348 233.73703593 -195.53466303 234.60552752 C-198.38034875 237.45251823 -201.22605511 240.29948832 -204.07177174 243.14644814 C-227.69688278 266.78193359 -251.31836848 290.42103918 -274.9375 314.0625 C-273.23895963 317.68333128 -271.22645218 320.00505354 -268.3671875 322.828125 C-267.47128906 323.71757812 -266.57539063 324.60703125 -265.65234375 325.5234375 C-264.71519531 326.44382812 -263.77804687 327.36421875 -262.8125 328.3125 C-261.85761363 329.25734856 -260.90318141 330.20265633 -259.94921875 331.1484375 C-257.61640913 333.45768338 -255.27905914 335.76213203 -252.9375 338.0625 C-249.92743657 336.7121271 -247.83582352 335.21002128 -245.50924301 332.88033867 C-244.84640045 332.2214782 -244.18355789 331.56261774 -243.50062919 330.8837918 C-242.78078227 330.15811921 -242.06093536 329.43244661 -241.3192749 328.68478394 C-240.54814936 327.91536724 -239.77702382 327.14595055 -238.98253083 326.3532182 C-236.39210195 323.76609142 -233.80890001 321.17186644 -231.22558594 318.57763672 C-229.37323223 316.72471905 -227.52043838 314.87224131 -225.66723633 313.02017212 C-221.67412911 309.02811378 -217.68470111 305.0324089 -213.69774628 301.03420639 C-207.93327028 295.25347872 -202.16328184 289.47827929 -196.39193156 283.70441569 C-187.02853003 274.33663653 -177.66960385 264.96439942 -168.31347656 255.58935547 C-159.22467376 246.48219562 -150.13377348 237.37713797 -141.04003906 228.27490234 C-140.47953479 227.71387262 -139.91903051 227.1528429 -139.34154126 226.57481228 C-136.52965282 223.76031377 -133.71772303 220.94585656 -130.90577269 218.1314199 C-107.57660155 194.78151416 -84.25468747 171.42437271 -60.9375 148.0625 C-61.89037388 146.94425701 -62.84418396 145.82681174 -63.79838562 144.70970154 C-64.32943751 144.08733832 -64.86048941 143.46497511 -65.40763378 142.8237524 C-67.26362741 140.68704711 -69.20762082 138.66291058 -71.20703125 136.66015625 C-71.95017578 135.91572266 -72.69332031 135.17128906 -73.45898438 134.40429688 C-74.59303711 133.27604492 -74.59303711 133.27604492 -75.75 132.125 C-76.52537109 131.34576172 -77.30074219 130.56652344 -78.09960938 129.76367188 C-79.2046582 128.66055664 -79.2046582 128.66055664 -80.33203125 127.53515625 C-81.00081299 126.86750244 -81.66959473 126.19984863 -82.35864258 125.51196289 C-84.32945517 123.60950521 -84.32945517 123.60950521 -86.27998406 125.28078556 Z M-338.9375 299.0625 C-341.19885128 306.08740564 -343.4594543 313.11255163 -345.71916485 320.13798523 C-346.76904999 323.40199905 -347.81916969 326.66593697 -348.86987305 329.9296875 C-351.22753579 337.25364886 -353.58096706 344.57894519 -355.92669678 351.90673828 C-356.56024023 353.88468229 -357.19487517 355.86227738 -357.83111572 357.83935547 C-358.56479666 360.12075514 -359.29325664 362.40373411 -360.01953125 364.6875 C-360.39956299 365.87601562 -360.77959473 367.06453125 -361.17114258 368.2890625 C-362.07066976 371.06487794 -362.07066976 371.06487794 -361.9375 374.0625 C-353.19815759 372.49603107 -344.65677484 370.21878261 -336.0859375 367.9296875 C-334.57572363 367.52871568 -333.06543795 367.12801429 -331.55508423 366.72756958 C-327.61221716 365.68141866 -323.67032589 364.6316373 -319.7286377 363.58105469 C-315.6933812 362.50623671 -311.65719724 361.43491335 -307.62109375 360.36328125 C-299.72565903 358.2664085 -291.8312534 356.16569323 -283.9375 354.0625 C-289.24454963 347.62547913 -295.08872752 341.76526816 -300.98828125 335.87890625 C-302.05362798 334.81288487 -303.11882632 333.74671517 -304.18388367 332.68040466 C-306.40197586 330.46084689 -308.62184512 328.24308646 -310.84301758 326.02661133 C-313.69580884 323.17955865 -316.5440308 320.32798334 -319.39097309 317.47508335 C-321.58266796 315.27978754 -323.77672321 313.08686332 -325.97151756 310.89466667 C-327.02367827 309.84317437 -328.07509299 308.79093507 -329.12575722 307.73794746 C-330.58575343 306.27542791 -332.04888789 304.81612438 -333.51293945 303.35766602 C-334.76153496 302.1102639 -334.76153496 302.1102639 -336.03535461 300.83766174 C-337.62571499 298.94878625 -337.62571499 298.94878625 -338.9375 299.0625 Z " fill="#FFCD00" transform="translate(479.9375,15.9375)"/>
<path d="M0 0 C1.02994835 -0.00623996 2.0598967 -0.01247993 3.1210556 -0.01890898 C6.57117119 -0.03485976 10.02058233 -0.02222602 13.47070312 -0.00964355 C15.94458427 -0.01506372 18.41846219 -0.02218578 20.89233398 -0.03088379 C26.91349825 -0.0472373 32.93438621 -0.0448334 38.9555397 -0.03323323 C43.84952684 -0.02419539 48.74345808 -0.02297641 53.63745117 -0.02732849 C54.33429693 -0.02794142 55.03114268 -0.02855436 55.74910498 -0.02918586 C57.1647854 -0.03046478 58.58046581 -0.03176163 59.9961462 -0.03307623 C73.26737593 -0.04447923 86.53849509 -0.03137274 99.80970669 -0.00987476 C111.1941567 0.007996 122.57844356 0.00489182 133.96289062 -0.0135498 C147.18700089 -0.03496149 160.41101428 -0.04338062 173.63513947 -0.03110075 C175.04557799 -0.02982657 176.45601653 -0.02856909 177.86645508 -0.02732849 C178.90736746 -0.02640284 178.90736746 -0.02640284 179.96930838 -0.02545848 C184.85675986 -0.02200647 189.74414984 -0.02783071 194.6315918 -0.0372467 C201.21112032 -0.04964413 207.79038837 -0.04080294 214.36990356 -0.01766968 C216.78621915 -0.01237564 219.20256065 -0.01390816 221.61886597 -0.02272034 C224.91423114 -0.03363137 228.20860448 -0.01996465 231.50390625 0 C232.46285545 -0.00892289 233.42180466 -0.01784577 234.40981293 -0.02703905 C240.03725907 0.03920896 243.2967234 0.73385135 247.75195312 4.50793457 C251.38028976 8.32723629 252.06195771 11.39072463 252.25195312 16.50793457 C252.06195771 21.62514451 251.38028976 24.68863285 247.75195312 28.50793457 C242.57813272 32.8090204 238.73138225 33.07438984 232.29873657 32.98895264 C231.35666351 32.99237671 230.41459045 32.99580078 229.44396973 32.99932861 C226.28151052 33.00594247 223.11990113 32.98386837 219.95751953 32.96203613 C217.65395828 32.96081068 215.35039552 32.96134495 213.04683495 32.96349716 C206.87703767 32.96440034 200.70755061 32.94121432 194.53782654 32.91305542 C188.74875916 32.89027845 182.95976728 32.88920311 177.1706543 32.88635254 C160.23937947 32.86536183 143.30816238 32.80951723 126.37695312 32.75793457 C88.55070312 32.67543457 50.72445312 32.59293457 11.75195312 32.50793457 C11.75195312 180.34793457 11.75195312 328.18793457 11.75195312 480.50793457 C159.26195313 480.50793457 306.77195313 480.50793457 458.75195312 480.50793457 C458.63317949 406.86544566 458.63317949 406.86544566 458.48168945 333.22302246 C458.46813965 318.98144531 458.46813965 318.98144531 458.46562195 312.31480408 C458.46282648 307.65765599 458.45158189 303.00061045 458.43522644 298.3434906 C458.41463291 292.40078058 458.40848272 286.45821945 458.4127363 280.51547706 C458.41184698 278.33591627 458.40590775 276.15635022 458.39430773 273.97682011 C458.37934595 271.02839127 458.38299745 268.08053791 458.39118958 265.13209534 C458.37808259 263.85859301 458.37808259 263.85859301 458.36471081 262.55936337 C458.40995921 256.48396068 458.99707647 249.60132597 463.20391303 244.8775602 C468.42692441 240.4358389 472.09195071 240.15872402 478.76757812 240.23059082 C484.06377258 240.72277643 486.55374007 243.09346803 489.87645721 247.01586914 C492.40445046 251.72284706 492.30884522 255.49448068 492.2598877 260.75598145 C492.26612766 261.78592979 492.27236762 262.81587814 492.27879667 263.87703705 C492.29474746 267.32715263 492.28211372 270.77656378 492.26953125 274.22668457 C492.27495141 276.70056572 492.28207347 279.17444364 492.29077148 281.64831543 C492.30712499 287.6694797 492.30472109 293.69036766 492.29312092 299.71152115 C492.28408309 304.60550828 492.2828641 309.49943953 492.28721619 314.39343262 C492.28782912 315.09027837 492.28844205 315.78712413 492.28907356 316.50508642 C492.29035247 317.92076685 492.29164933 319.33644726 492.29296392 320.75212765 C492.30436693 334.02335738 492.29126044 347.29447654 492.26976246 360.56568813 C492.25189169 371.95013814 492.25499588 383.334425 492.2734375 394.71887207 C492.29484919 407.94298234 492.30326832 421.16699573 492.29098845 434.39112091 C492.28971426 435.80155943 492.28845678 437.21199797 492.28721619 438.62243652 C492.28659908 439.31637811 492.28598198 440.0103197 492.28534618 440.72528982 C492.28189417 445.61274131 492.2877184 450.50013128 492.2971344 455.38757324 C492.30953182 461.96710177 492.30069063 468.54636981 492.27755737 475.12588501 C492.27226334 477.5422006 492.27379585 479.95854209 492.28260803 482.37484741 C492.29351907 485.67021258 492.27985235 488.96458592 492.2598877 492.2598877 C492.26881058 493.2188369 492.27773347 494.1777861 492.28692675 495.16579437 C492.22101284 500.7648597 491.64372209 504.17397875 487.75195312 508.50793457 C483.02169379 512.35482584 479.27711703 513.08325065 473.34667969 513.01129913 C472.51087435 513.0171129 471.67506901 513.02292666 470.81393623 513.0289166 C468.00652461 513.04354243 465.19998373 513.02961932 462.39257812 513.01586914 C460.36226962 513.02047703 458.33196444 513.02682918 456.30166626 513.03477812 C450.71714124 513.05150989 445.13288887 513.0432075 439.54836273 513.03083324 C433.52782829 513.02180086 427.50734146 513.03574348 421.48681641 513.04675293 C410.37257686 513.06353231 399.25841251 513.06204912 388.14417243 513.05110706 C377.87703009 513.04104848 367.60991969 513.03841632 357.34277344 513.04319763 C356.66197401 513.04350317 355.98117458 513.04380871 355.27974486 513.04412351 C352.5162221 513.04536885 349.75269936 513.04664245 346.98917663 513.04796257 C321.0603212 513.06020111 295.13152126 513.0491007 269.20267439 513.02757498 C246.16177924 513.00859226 223.12097251 513.01029076 200.08007812 513.02941895 C174.19893029 513.0508332 148.31783149 513.05933319 122.43667603 513.04696989 C119.67816163 513.045687 116.91964723 513.04443564 114.16113281 513.04319763 C113.48190632 513.04288132 112.80267982 513.04256501 112.1028707 513.04223912 C101.841679 513.03768745 91.58052273 513.04301362 81.31933594 513.05311584 C69.65297444 513.06454414 57.98669711 513.06132657 46.32034492 513.03999287 C40.36521603 513.0294628 34.41026683 513.02539404 28.45513916 513.03858948 C23.00729343 513.05047852 17.55979455 513.04400831 12.11198044 513.02267927 C10.13764159 513.01819841 8.16327365 513.02051255 6.1889534 513.03018242 C3.51129076 513.04229459 0.83482603 513.0299242 -1.84277344 513.01129913 C-2.61463423 513.0206638 -3.38649502 513.03002846 -4.18174553 513.0396769 C-9.37001389 512.96723324 -12.32122781 511.88546471 -16.24804688 508.50793457 C-20.22506896 503.88412797 -20.82310691 500.01199461 -20.75141144 494.10266113 C-20.7572252 493.26685579 -20.76303896 492.43105045 -20.7690289 491.56991768 C-20.78365473 488.76250606 -20.76973163 485.95596517 -20.75598145 483.14855957 C-20.76058933 481.11825106 -20.76694149 479.08794588 -20.77489042 477.05764771 C-20.7916222 471.47312268 -20.7833198 465.88887031 -20.77094555 460.30434418 C-20.76191316 454.28380973 -20.77585579 448.26332291 -20.78686523 442.24279785 C-20.80364462 431.1285583 -20.80216142 420.01439395 -20.79121936 408.90015388 C-20.78116079 398.63301154 -20.77852862 388.36590114 -20.78330994 378.09875488 C-20.78361548 377.41795545 -20.78392102 376.73715602 -20.78423582 376.03572631 C-20.78548115 373.27220355 -20.78675475 370.5086808 -20.78807487 367.74515808 C-20.80031342 341.81630264 -20.789213 315.8875027 -20.76768728 289.95865583 C-20.74870457 266.91776068 -20.75040307 243.87695395 -20.76953125 220.83605957 C-20.7909455 194.95491173 -20.7994455 169.07381294 -20.7870822 143.19265747 C-20.78579931 140.43414308 -20.78454795 137.67562867 -20.78330994 134.91711426 C-20.78299363 134.23788776 -20.78267732 133.55866127 -20.78235142 132.85885215 C-20.77779976 122.59766045 -20.78312593 112.33650418 -20.79322815 102.07531738 C-20.80465645 90.40895589 -20.80143887 78.74267855 -20.78010517 67.07632637 C-20.76957511 61.12119747 -20.76550635 55.16624827 -20.77870178 49.21112061 C-20.79059083 43.76327487 -20.78412062 38.315776 -20.76279157 32.86796188 C-20.75831071 30.89362304 -20.76062485 28.91925509 -20.77029473 26.94493484 C-20.7824069 24.2672722 -20.7700365 21.59080747 -20.75141144 18.91320801 C-20.7607761 18.14134722 -20.77014077 17.36948643 -20.77978921 16.57423592 C-20.70759661 11.4039486 -19.49390903 8.49914947 -16.24804688 4.50793457 C-11.0985024 -0.11620978 -6.58234768 -0.06124782 0 0 Z " fill="#FFCC00" transform="translate(20.248046875,-0.5079345703125)"/>
</svg>
