<?xml version="1.0" encoding="UTF-8"?>
<svg version="1.1" xmlns="http://www.w3.org/2000/svg" width="512" height="512">
<path d="M0 0 C1.29717106 -0.00761181 1.29717106 -0.00761181 2.62054759 -0.0153774 C3.57626649 -0.01587516 4.53198538 -0.01637292 5.51666546 -0.01688576 C6.52756746 -0.02126801 7.53846947 -0.02565027 8.58000487 -0.03016531 C11.98936943 -0.04358918 15.39870812 -0.04974019 18.80809307 -0.0558567 C21.24359537 -0.06375476 23.67909649 -0.07202352 26.11459637 -0.08063698 C33.43902069 -0.10462185 40.76344075 -0.1197888 48.08789089 -0.13269705 C50.15598765 -0.1364082 52.22408374 -0.14038149 54.29217982 -0.14444971 C67.12995279 -0.16968411 79.9677268 -0.19174102 92.8055191 -0.20417786 C95.77968442 -0.20710763 98.75384971 -0.21006929 101.72801495 -0.21308327 C102.46724485 -0.21382932 103.20647476 -0.21457537 103.96810558 -0.21534403 C115.94714667 -0.22800166 127.92603947 -0.26122976 139.90501121 -0.3028851 C152.19850459 -0.3452844 164.491922 -0.36887051 176.78548831 -0.37409842 C183.68997822 -0.37751471 190.59423634 -0.38929521 197.49865437 -0.42220116 C203.99193001 -0.45309664 210.48491195 -0.45862976 216.97825336 -0.4468174 C219.36436754 -0.44659582 221.75049995 -0.45496995 224.13654995 -0.47247124 C227.38882936 -0.4950319 230.63962451 -0.4869278 233.8919096 -0.47098732 C234.84093633 -0.48486941 235.78996306 -0.49875149 236.76774818 -0.51305425 C241.25539384 -0.45868465 243.26916424 -0.33034452 246.95744133 2.4250145 C250.44708962 7.310071 250.04624695 12.1677214 250.05298138 18.0080471 C250.05791935 18.91392987 250.06285733 19.81981265 250.06794494 20.75314641 C250.0833282 23.79483752 250.09168284 26.83650751 250.10008526 29.87822533 C250.10966313 32.05612944 250.11967315 34.2340317 250.13008404 36.41193199 C250.15714902 42.33091594 250.17814999 48.24990788 250.19808602 54.16891956 C250.21993572 60.35224874 250.24732939 66.53555325 250.27414227 72.71886253 C250.32408289 84.43077622 250.36901665 96.14270359 250.41216463 107.85464406 C250.46144663 121.1870271 250.51644777 134.5193843 250.57184422 147.85174322 C250.6856853 175.28014386 250.79251973 202.70856824 250.89476299 230.13701439 C251.7002055 229.32713066 252.505648 228.51724693 253.33549786 227.68282127 C260.92254497 220.05525042 268.51485262 212.43295105 276.11235714 204.8157959 C280.01824058 200.89947032 283.92223971 196.98130397 287.82200909 193.05888939 C291.5847723 189.27441339 295.35238411 185.49482789 299.12342358 181.71859932 C300.56209 180.27623435 301.99899343 178.83210871 303.43410778 177.38620949 C305.44273687 175.36308654 307.45751363 173.34628496 309.47386456 171.33086205 C310.06728146 170.73025459 310.66069836 170.12964714 311.27209759 169.51083946 C314.50390438 166.29511703 317.2143865 163.64851422 321.83226299 162.76727867 C330.39323715 162.95722275 335.35261634 169.57495763 340.89476299 175.32060814 C342.0212486 176.45949258 343.14945159 177.59668065 344.27928448 178.73224449 C347.23648053 181.71421108 350.16845231 184.71983952 353.09611797 187.73076439 C355.49585835 190.19068354 357.91246723 192.63364032 360.33021832 195.07584095 C365.31849477 200.11467318 370.29576713 205.16447097 375.24241924 210.24419212 C376.55738384 211.59202026 376.55738384 211.59202026 377.89891338 212.96707726 C381.05905177 216.40285799 381.45794983 219.03762966 381.32808399 223.60933495 C379.92227963 231.80977481 369.68675307 237.78966915 363.55648708 242.66873407 C345.80982984 256.83638046 328.76541195 271.80575692 312.01976299 287.13701439 C311.29359783 287.80058638 310.56743267 288.46415836 309.8192625 289.14783859 C273.2494485 322.65829794 244.54812962 353.14283298 242.22702873 404.57103682 C241.85496521 415.20039511 242.24007966 425.77674559 242.89476299 436.38701439 C242.94357522 437.18862747 242.99238745 437.99024055 243.04267883 438.81614494 C243.93703221 453.10474367 245.15889485 467.363684 247.24727154 481.53087425 C247.52874444 483.44991318 247.52874444 483.44991318 247.81590366 485.40772057 C248.1766857 487.77353362 248.55796622 490.1363549 248.96420765 492.49478722 C249.95629635 498.74741735 250.29378284 502.6619667 246.89476299 508.13701439 C243.37635914 510.48261696 241.95689748 510.38978372 237.79239368 510.39707661 C236.50761446 510.4041422 235.22283524 510.41120779 233.89912331 510.41848749 C232.46506255 510.41623591 231.03100208 510.41378939 229.59694195 510.41116905 C228.07998702 510.41561905 226.56303441 510.4209323 225.04608524 510.42703778 C220.86671937 510.44125679 216.68742774 510.44288033 212.50804114 510.44244087 C208.00487295 510.44408563 203.50173564 510.45714569 198.99858379 510.46863365 C189.14750068 510.49150848 179.29643907 510.49940679 169.445333 510.5044601 C163.29750051 510.50771396 157.1496743 510.51423451 151.00184536 510.52146149 C133.98913365 510.54102994 116.97642779 510.55743295 99.96370411 510.56033802 C98.32987746 510.56061938 98.32987746 510.56061938 96.66304421 510.56090641 C94.45482024 510.56127267 92.24659626 510.56163637 90.03837229 510.56199753 C88.94216775 510.56218034 87.8459632 510.56236315 86.71654034 510.5625515 C85.07023307 510.56282232 85.07023307 510.56282232 83.39066707 510.56309862 C65.59830052 510.56664183 47.80605489 510.59367234 30.0137303 510.63104939 C11.75825435 510.66909339 -6.49716154 510.68849521 -24.75267804 510.68879753 C-35.00724009 510.68938295 -45.26165788 510.69792941 -55.5161829 510.7267952 C-64.24643019 510.75125679 -72.97648062 510.75862736 -81.70675288 510.74354767 C-86.16312361 510.73635751 -90.61910519 510.7373263 -95.07543278 510.75995827 C-99.15290598 510.78046829 -103.22968889 510.77802352 -107.30715396 510.75708342 C-108.78426836 510.75357314 -110.26143178 510.75856335 -111.73848186 510.77278786 C-113.7426412 510.79084874 -115.74702009 510.77522308 -117.75118542 510.75784016 C-118.86555725 510.75865461 -119.97992908 510.75946907 -121.12806976 510.76030821 C-125.1824036 509.91150093 -126.64577628 508.43057352 -129.10523701 505.13701439 C-129.73428416 502.08865613 -129.73428416 502.08865613 -129.74002934 498.60952091 C-129.74789573 497.96456646 -129.75576213 497.31961201 -129.7638669 496.65511349 C-129.78414494 494.49060658 -129.76879177 492.32783269 -129.75361347 490.16330528 C-129.76080607 488.59725629 -129.77017191 487.03121602 -129.78152585 485.46519166 C-129.80631888 481.15917171 -129.7998177 476.8536774 -129.78817844 472.54762256 C-129.78099432 467.90465192 -129.8024888 463.26180169 -129.82023335 458.61887169 C-129.85020998 449.5215 -129.85279463 440.42431702 -129.84522018 431.32690664 C-129.83939991 423.93290874 -129.84258164 416.5389673 -129.85219288 409.14497375 C-129.85353649 408.09332372 -129.8548801 407.04167368 -129.85626443 405.95815546 C-129.85900761 403.82182896 -129.86176009 401.68550248 -129.86452177 399.54917601 C-129.88913826 379.50506316 -129.88151273 359.46105738 -129.86395171 339.41694365 C-129.84885228 321.07701303 -129.87303914 302.73738288 -129.91598412 284.39750417 C-129.95973356 265.57127051 -129.97762147 246.7451778 -129.96720815 227.91889364 C-129.96179956 217.34732848 -129.96655673 206.7760046 -129.99817371 196.20447922 C-130.02478571 187.20383104 -130.02687995 178.20358464 -129.99731264 169.20293876 C-129.98289165 164.61037789 -129.97971908 160.01854238 -130.00696659 155.42602348 C-130.03161709 151.2205554 -130.02387975 147.0164293 -129.99046567 142.81103317 C-129.98404156 141.29086449 -129.98939933 139.77059014 -130.00781319 138.25051942 C-130.15146302 125.49303352 -130.15146302 125.49303352 -125.87753105 120.51229286 C-124.64690994 119.35793627 -123.39095258 118.22967304 -122.10523701 117.13701439 C-121.22500716 116.21525697 -120.34477732 115.29349955 -119.43787384 114.34381008 C-118.59150014 113.49705935 -117.74512644 112.65030863 -116.87310505 111.77789879 C-116.15571218 111.05816593 -116.15571218 111.05816593 -115.42382652 110.32389301 C-113.84951447 108.7456497 -112.27172179 107.17093673 -110.69386005 105.5962429 C-109.55302354 104.45404895 -108.41239933 103.31164289 -107.2719698 102.16904259 C-104.19616147 99.08870378 -101.11723298 96.01150202 -98.03756785 92.93501973 C-94.80990848 89.70990302 -91.58470191 86.4823349 -88.35909748 83.25516319 C-82.95002013 77.84427128 -77.53884787 72.43548113 -72.12647724 67.02788353 C-65.86526873 60.77213279 -59.60769304 54.51276548 -53.35195988 48.25153977 C-47.97532636 42.87037447 -42.59675445 37.49115247 -37.21654445 32.113563 C-34.00514782 28.90372667 -30.79443386 25.69321534 -27.58546734 22.4809494 C-24.57455218 19.46715406 -21.56121754 16.45579929 -18.54596615 13.44634247 C-17.43810011 12.33980253 -16.33109128 11.23240362 -15.22498798 10.12410164 C-13.71976859 8.61616531 -12.21152837 7.1113182 -10.70245075 5.60724449 C-9.43571789 4.34107717 -9.43571789 4.34107717 -8.14339447 3.04933071 C-5.30662357 0.38770942 -3.78091284 0.01175092 0 0 Z M10.89476299 20.13701439 C10.56476299 51.81701439 10.23476299 83.49701439 9.89476299 116.13701439 C5.71638925 125.53835531 2.00443262 132.09762268 -7.10523701 137.13701439 C-39.37441735 147.89340784 -75.09237957 139.78271379 -109.10523701 140.13701439 C-109.10523701 255.63701439 -109.10523701 371.13701439 -109.10523701 490.13701439 C2.43476299 490.13701439 113.97476299 490.13701439 228.89476299 490.13701439 C228.89476299 453.50701439 228.89476299 416.87701439 228.89476299 379.13701439 C224.66351929 382.76379471 220.78040011 386.13552198 216.94432354 390.08501244 C216.03615383 391.01585152 215.12798412 391.9466906 214.19229412 392.90573692 C213.71834902 393.39353315 213.24440392 393.88132938 212.75609684 394.38390732 C210.2016373 397.00802345 207.62964806 399.61490779 205.06077862 402.22490501 C201.81245779 405.52709242 198.56951096 408.8340651 195.34520245 412.15971947 C192.72007189 414.86643235 190.07777131 417.55530916 187.42352009 420.23345947 C186.42331867 421.24898022 185.42939665 422.27072959 184.4423151 423.29900742 C183.05611491 424.74138417 181.64506103 426.15974609 180.23338604 427.57719994 C179.44175564 428.38739082 178.65012524 429.19758171 177.83450603 430.03232384 C152.12290478 448.44038313 101.91308146 445.4750506 71.71494484 445.1812861 C66.39645073 445.13864507 61.07795891 445.14635934 55.75932598 445.14670372 C46.89253133 445.14030304 38.02645371 445.10011363 29.15989971 445.03569603 C18.92677564 444.96157948 8.6943431 444.93436482 -1.53903317 444.93254739 C-12.53693289 444.93030296 -23.53457914 444.89769222 -34.53238678 444.85453391 C-37.67528922 444.84407251 -40.81816287 444.83899647 -43.9610796 444.83502197 C-48.87022848 444.82712701 -53.77884419 444.79866793 -58.68779278 444.75408554 C-60.48531031 444.74080539 -62.28289218 444.73427115 -64.08045864 444.73496056 C-66.53111035 444.73468432 -68.98031305 444.70984195 -71.4307375 444.67859459 C-72.14148434 444.68410688 -72.85223118 444.68961917 -73.58451581 444.69529849 C-78.3234721 444.59811392 -80.80895178 443.54188869 -84.10523701 440.13701439 C-84.62867451 437.66435814 -84.62867451 437.66435814 -84.48023701 435.07451439 C-84.44672138 434.21728783 -84.41320576 433.36006126 -84.37867451 432.47685814 C-84.10523701 430.13701439 -84.10523701 430.13701439 -83.10523701 427.13701439 C-78.20082772 425.27980149 -73.75493387 424.88073205 -68.5438509 424.85854149 C-67.81508116 424.85274909 -67.08631142 424.84695668 -66.33545774 424.84098876 C-63.91109683 424.82408127 -61.48692735 424.8211203 -59.0625124 424.81816673 C-57.317655 424.80886216 -55.57280203 424.7986927 -53.82795429 424.78772545 C-49.10332226 424.76047109 -44.37871997 424.74528956 -39.65403008 424.73229742 C-34.71190408 424.71664691 -29.76983863 424.6898628 -24.82775593 424.66426659 C-15.4746549 424.61751281 -6.12154243 424.58075223 3.2316156 424.54759371 C13.8821569 424.5093483 24.53263733 424.45994447 35.18312728 424.40960956 C57.08696088 424.30634028 78.99083303 424.21706359 100.89476299 424.13701439 C101.37166787 422.09441557 101.84703129 420.05145682 102.32176495 418.00835228 C102.7190958 416.30190292 102.7190958 416.30190292 103.12445354 414.56097984 C104.24318784 409.58829311 105.18141617 404.59051362 106.08226299 399.57451439 C106.25950909 398.61738548 106.43675518 397.66025658 106.61937237 396.67412376 C106.78630596 395.75308861 106.95323956 394.83205345 107.12523174 393.88310814 C107.27371563 393.06511742 107.42219952 392.24712669 107.57518291 391.40434837 C107.98780974 388.85849719 107.98780974 388.85849719 107.89476299 385.13701439 C106.92954849 385.13554783 105.96433399 385.13408127 104.96987057 385.13257027 C81.50167421 385.09600168 58.03362085 385.03658687 34.56554317 384.95311165 C23.21662179 384.91327474 11.86777022 384.8809059 0.51878643 384.8660183 C-9.37111807 384.85302587 -19.26086928 384.82612299 -29.15068746 384.78240132 C-34.38899808 384.75973223 -39.62711925 384.74410697 -44.86548328 384.74513054 C-49.7936099 384.74587394 -54.72131683 384.7280524 -59.64933491 384.69584656 C-61.4601497 384.68731132 -63.27101137 384.68562206 -65.08183765 384.6912117 C-67.55072376 384.69781887 -70.01826164 384.6800115 -72.48701191 384.65599632 C-73.20685882 384.66375674 -73.92670574 384.67151716 -74.66836619 384.67951274 C-78.06451878 384.62085966 -79.82522694 384.3516801 -82.55476475 382.25911903 C-84.45999612 379.65146171 -84.55754714 378.27086318 -84.41773701 375.07451439 C-84.39324482 374.21728783 -84.36875263 373.36006126 -84.34351826 372.47685814 C-84.10523701 370.13701439 -84.10523701 370.13701439 -83.10523701 367.13701439 C-78.07207059 365.18966168 -73.53031421 364.90289064 -68.15417194 365.11424828 C-67.38279331 365.13526737 -66.61141468 365.15628647 -65.81666094 365.17794251 C-64.13476413 365.22481835 -62.45299773 365.27657139 -60.77138233 365.3326416 C-56.08439101 365.48829954 -51.3963624 365.60680872 -46.70849323 365.73265648 C-45.70931303 365.76056912 -44.71013283 365.78848176 -43.68067443 365.81724024 C-30.79332826 366.17097721 -17.90280161 366.33597259 -5.01192939 366.50561666 C7.50593947 366.67091588 20.01484844 366.89591547 32.52684307 367.32109642 C45.68206799 367.75847645 58.82948601 368.01895371 71.99241924 367.99638939 C73.04748684 367.99466036 74.10255445 367.99293133 75.18959379 367.9911499 C99.04972858 367.86570792 120.20649342 367.59144544 138.23373699 350.39732933 C149.60382509 339.10443378 149.60382509 339.10443378 155.89476299 325.13701439 C154.07587252 325.13481455 154.07587252 325.13481455 152.22023678 325.13257027 C123.44809923 325.09688305 94.67605093 325.04066331 65.90400852 324.95909344 C62.36414324 324.94907575 58.8242775 324.93923166 55.28441143 324.92949486 C54.57967559 324.92755348 53.87493974 324.92561211 53.14884827 324.92361191 C41.73166952 324.89257457 30.31451088 324.87560644 18.89729789 324.86382017 C7.18577258 324.85141756 -4.52564702 324.82393639 -16.23710561 324.78240132 C-22.81679955 324.75972324 -29.39634249 324.74410751 -35.97607899 324.74513054 C-42.16488159 324.7458734 -48.35334955 324.72807333 -54.54206562 324.69584656 C-56.81730086 324.68730455 -59.09257346 324.68562655 -61.36781788 324.6912117 C-64.46718967 324.69780837 -67.56548316 324.68003467 -70.66474628 324.65599632 C-72.02466493 324.66763695 -72.02466493 324.66763695 -73.41205668 324.67951274 C-79.47891543 324.59584154 -79.47891543 324.59584154 -82.66865635 322.25911903 C-84.43269925 319.65328997 -84.55426211 318.19576071 -84.41773701 315.07451439 C-84.39324482 314.21728783 -84.36875263 313.36006126 -84.34351826 312.47685814 C-84.10523701 310.13701439 -84.10523701 310.13701439 -83.10523701 307.13701439 C-76.94726762 304.99375287 -71.33878704 304.9457364 -64.8815279 305.20172691 C-63.87753761 305.23191837 -62.87354732 305.26210982 -61.83913308 305.29321617 C-59.64660271 305.35999469 -57.45421676 305.43165206 -55.26198483 305.50759888 C-49.15311293 305.71804945 -43.04309311 305.88955411 -36.93316364 306.0661068 C-35.63005218 306.10464905 -34.32694072 306.1431913 -32.98434103 306.1829015 C-23.3761713 306.46315995 -13.76798222 306.66549505 -4.15707111 306.82376671 C-3.45816113 306.83533702 -2.75925114 306.84690733 -2.03916206 306.85882825 C5.19120797 306.97757103 12.42169314 307.08743113 19.65228485 307.1917291 C23.36489992 307.24577083 27.07747273 307.30232006 30.79002666 307.36040306 C31.52875036 307.37192128 32.26747405 307.3834395 33.02858331 307.39530676 C43.42193715 307.56194333 53.80638861 307.84665826 64.19418981 308.22244865 C140.45267373 314.65631611 140.45267373 314.65631611 208.1487875 288.90820122 C230.58103612 267.86935787 232.55406886 237.83771496 233.64029795 208.70004278 C234.24081671 187.68261054 233.47046578 166.6858157 232.56824332 145.68962032 C232.16008056 136.08908517 231.88484977 126.49111711 231.69627666 116.88384056 C231.6826088 116.19443022 231.66894093 115.50501989 231.65485889 114.79471833 C231.53680224 108.79181891 231.42705762 102.78877411 231.31812096 96.78570271 C230.84350078 71.21779504 229.82686579 45.70181197 228.89476299 20.13701439 C156.95476299 20.13701439 85.01476299 20.13701439 10.89476299 20.13701439 Z M-14.33852863 39.24332237 C-15.02986393 39.93183784 -15.72119923 40.62035332 -16.43348408 41.32973289 C-17.19664936 42.09492241 -17.95981464 42.86011192 -18.74610615 43.648489 C-19.54604496 44.44667549 -20.34598377 45.24486198 -21.17016315 46.06723595 C-23.82943867 48.72208872 -26.48501449 51.38060825 -29.14039326 54.03935814 C-30.9772776 55.87556956 -32.81431042 57.71163247 -34.6514864 59.54755211 C-38.50757421 63.40216237 -42.36188577 67.25853636 -46.21485615 71.11626244 C-50.6760598 75.58290872 -55.14085467 80.04594095 -59.60753256 84.50711244 C-63.89570853 88.79021255 -68.181078 93.07610794 -72.46525097 97.36321259 C-74.29266475 99.19129606 -76.12082883 101.01862983 -77.9497366 102.84521866 C-80.50016532 105.39312337 -83.04739247 107.94418508 -85.5937624 110.49614525 C-86.74154667 111.64089317 -86.74154667 111.64089317 -87.9125185 112.80876732 C-88.60103397 113.50010262 -89.28954945 114.19143791 -89.99892902 114.90372276 C-90.6023264 115.50749717 -91.20572378 116.11127157 -91.82740593 116.73334217 C-93.21743398 117.94389456 -93.21743398 117.94389456 -93.10523701 119.13701439 C-83.29981948 119.25298046 -73.4945657 119.34176626 -63.68860149 119.39607525 C-59.13501315 119.42214405 -54.58189475 119.45749191 -50.02857685 119.51421165 C-45.63244873 119.5686292 -41.23677198 119.59845536 -36.84033298 119.6114006 C-35.16498556 119.62062309 -33.48966221 119.63863295 -31.81450748 119.66566467 C-29.4634505 119.70208669 -27.11424659 119.70695457 -24.76295185 119.70464134 C-24.07386738 119.72261772 -23.38478291 119.7405941 -22.67481709 119.75911522 C-17.12716292 119.70024627 -14.86976769 117.90974826 -11.10523701 114.13701439 C-9.62534909 111.17723855 -9.97513302 108.1772343 -9.99171162 104.93340111 C-9.99156559 104.19183769 -9.99141956 103.45027428 -9.99126911 102.68623924 C-9.99196701 100.22969726 -9.99975367 97.77323066 -10.00758076 95.31670189 C-10.00944537 93.61562199 -10.01086907 91.91454155 -10.01186848 90.21346092 C-10.01569022 85.73194972 -10.0255176 81.25047082 -10.03657246 76.7689724 C-10.04679393 72.19764709 -10.05136768 67.62631657 -10.05640888 63.05498314 C-10.06714016 54.08231268 -10.08421249 45.10966622 -10.10523701 36.13701439 C-11.95296339 36.13701439 -13.10243455 38.00800017 -14.33852863 39.24332237 Z M321.40428448 190.51396751 C320.78110332 191.14238548 320.15792217 191.77080345 319.51585674 192.41826439 C318.84232159 193.0950222 318.16878643 193.77178001 317.47484112 194.46904564 C316.76779034 195.18447533 316.06073956 195.89990501 315.33226299 196.63701439 C314.62134502 197.35244408 313.91042706 198.06787376 313.17796612 198.80498314 C311.41465702 200.58012652 309.65371459 202.35755484 307.89476299 204.13701439 C311.79453021 208.80575976 315.84690944 213.22829248 320.16820049 217.50810814 C320.73680798 218.07530067 321.30541546 218.64249321 321.89125347 219.2268734 C323.68172535 221.01181352 325.47566784 222.79321695 327.26976299 224.57451439 C328.49525623 225.79498378 329.72051871 227.01568492 330.94554424 228.23662376 C333.92596073 231.20610195 336.90949194 234.17241695 339.89476299 237.13701439 C344.0361463 233.65619699 348.0326715 230.12006113 351.83226299 226.26201439 C352.99048565 225.09025658 352.99048565 225.09025658 354.17210674 223.89482689 C354.74058331 223.31474876 355.30905987 222.73467064 355.89476299 222.13701439 C351.99928206 217.4786732 347.95777393 213.05092665 343.65648174 208.76592064 C343.09024593 208.1987281 342.52401012 207.63153557 341.94061565 207.04715538 C340.75785721 205.86372266 339.57386011 204.68152666 338.38865948 203.50053978 C336.5659421 201.68324203 334.7487049 199.86058414 332.93187237 198.03740501 C331.77789653 196.88408891 330.6236111 195.73108248 329.46898174 194.57842064 C328.92424709 194.03166176 328.37951244 193.48490288 327.81827068 192.92157555 C324.87750963 189.13213955 324.87750963 189.13213955 321.40428448 190.51396751 Z M287.55359447 224.22002029 C286.65185109 225.1305022 286.65185109 225.1305022 285.73189068 226.05937767 C285.09314766 226.69641184 284.45440464 227.33344601 283.79630578 227.98978424 C281.64187988 230.14089712 279.49471303 232.29911563 277.34739971 234.45732689 C275.81060782 235.9946825 274.27337623 237.53159869 272.73573589 239.0681057 C268.54967848 243.25358707 264.36983489 247.44522546 260.1910367 251.6379528 C255.82770035 256.01375486 251.45873499 260.38392908 247.09035015 264.75469017 C238.81323751 273.03802985 230.54123814 281.32645655 222.27104008 289.61669922 C212.85801259 299.05220746 203.43917597 308.48190619 194.01992679 317.91120338 C174.63855522 337.31350467 155.2643303 356.72292926 135.89476299 376.13701439 C136.82750408 377.26596315 137.76616422 378.39002315 138.70726299 379.51201439 C139.22933331 380.13849876 139.75140362 380.76498314 140.28929424 381.41045189 C141.97702038 383.35911919 141.97702038 383.35911919 144.89476299 385.13701439 C196.37476299 333.65701439 247.85476299 282.17701439 300.89476299 229.13701439 C298.93175818 225.21100476 297.120879 223.0405188 293.89476299 220.13701439 C290.82337598 220.13701439 289.62392838 222.16474738 287.55359447 224.22002029 Z M315.89476299 243.13701439 C264.41476299 294.61701439 212.93476299 346.09701439 159.89476299 399.13701439 C162.01603081 404.02631168 162.01603081 404.02631168 168.89476299 409.13701439 C220.37476299 357.65701439 271.85476299 306.17701439 324.89476299 253.13701439 C322.77349518 248.2477171 322.77349518 248.2477171 315.89476299 243.13701439 Z M126.89476299 398.13701439 C126.22359032 401.57365053 125.55860229 405.0114548 124.89476299 408.44951439 C124.70398174 409.42597923 124.51320049 410.40244408 124.31663799 411.40849876 C124.13616924 412.34629173 123.95570049 413.2840847 123.76976299 414.25029564 C123.60218487 415.11437035 123.43460674 415.97844505 123.26195049 416.86870384 C122.81486452 419.24761634 122.81486452 419.24761634 122.89476299 422.13701439 C130.48476299 420.81701439 138.07476299 419.49701439 145.89476299 418.13701439 C144.13891323 414.62531485 142.92750367 412.92235404 140.23460674 410.24638939 C139.16822979 409.18291283 139.16822979 409.18291283 138.08030987 408.09795189 C136.96752666 407.00353783 136.96752666 407.00353783 135.83226299 405.88701439 C135.08654034 405.14193626 134.34081768 404.39685814 133.57249737 403.62920189 C130.63887432 400.07794776 130.63887432 400.07794776 126.89476299 398.13701439 Z " fill="#FAD808" transform="translate(130.1052370071411,0.8629856109619141)"/>
<path d="M0 0 C1.14413896 -0.00779995 2.28827791 -0.01559991 3.46708775 -0.02363622 C7.30968265 -0.04361618 11.15129382 -0.02776682 14.99389648 -0.01205444 C17.74512787 -0.01607676 20.49631718 -0.02754818 23.24752808 -0.03860474 C29.9496176 -0.06084595 36.65142726 -0.05603217 43.35352778 -0.04154153 C48.80009048 -0.0302527 54.24657471 -0.02871683 59.69314575 -0.03416061 C60.46812584 -0.03492678 61.24310592 -0.03569294 62.04157025 -0.03648233 C63.61589394 -0.03808094 65.19021762 -0.03970201 66.76454127 -0.04134528 C81.52938248 -0.05560536 96.2940685 -0.03920605 111.05888426 -0.01234345 C123.7296822 0.00999561 136.40025112 0.00611555 149.07104492 -0.01693726 C163.78279231 -0.04369074 178.49440367 -0.05423204 193.20617199 -0.03887594 C194.77472621 -0.03728318 196.34328045 -0.03571133 197.91183472 -0.03416061 C199.06949328 -0.03300355 199.06949328 -0.03300355 200.25053889 -0.03182311 C205.69099507 -0.02750474 211.13136503 -0.03479558 216.57180786 -0.04655838 C223.20134552 -0.06057695 229.83058716 -0.05679729 236.46009088 -0.03015466 C239.84322106 -0.01700696 243.22544844 -0.01456658 246.60863876 -0.02840042 C250.27458252 -0.04201108 253.93912654 -0.02499127 257.60498047 0 C258.67647119 -0.01115361 259.7479619 -0.02230722 260.85192204 -0.03379881 C268.04036326 0.06162579 268.04036326 0.06162579 271.93983459 2.9949131 C274.14221464 6.11642115 274.80249023 7.81033026 274.80249023 11.63491821 C273.61677493 16.0072434 272.84768139 18.03471742 268.87059116 20.3185606 C263.92573487 22.24442625 258.95235958 22.0466534 253.71287537 22.00914001 C252.6044851 22.01311442 251.49609483 22.01708883 250.35411698 22.02118367 C246.64463843 22.03079869 242.935542 22.01899295 239.22607422 22.00723267 C236.5648496 22.00966088 233.90365017 22.01326418 231.24243164 22.01829529 C224.76759642 22.02777189 218.29287283 22.02119362 211.81804591 22.00903235 C204.276023 21.99539547 196.73402654 21.99705167 189.19199444 21.99916568 C175.73474423 22.00235385 162.277547 21.99069733 148.8203125 21.97109985 C135.76495755 21.95209265 122.70966467 21.94501351 109.65429688 21.95059204 C95.43294131 21.95665083 81.21161301 21.95647122 66.99025971 21.94510621 C65.47367577 21.94389893 63.95709183 21.94269295 62.44050789 21.94148827 C61.69434319 21.94088473 60.9481785 21.94028119 60.17940275 21.93965936 C54.9232683 21.93578148 49.66714402 21.93617332 44.41100883 21.93807411 C38.00561358 21.94019694 31.60027265 21.93496525 25.1948927 21.92046056 C21.92731696 21.91322077 18.65983636 21.9102074 15.39225197 21.91370392 C11.84978719 21.91691986 8.30756164 21.90785839 4.76512146 21.89561462 C3.73292636 21.89939395 2.70073126 21.90317327 1.63725752 21.90706712 C-4.42811037 21.86989467 -9.3166721 21.45439463 -14.57250977 18.13491821 C-16.75418477 14.77849514 -16.72306961 12.10331726 -16.82641602 8.17007446 C-14.66373287 -0.54782221 -7.39201986 -0.07694672 0 0 Z " fill="#FAD708" transform="translate(61.197509765625,185.36508178710938)"/>
<path d="M0 0 C1.14413896 -0.00779995 2.28827791 -0.01559991 3.46708775 -0.02363622 C7.30968265 -0.04361618 11.15129382 -0.02776682 14.99389648 -0.01205444 C17.74512787 -0.01607676 20.49631718 -0.02754818 23.24752808 -0.03860474 C29.9496176 -0.06084595 36.65142726 -0.05603217 43.35352778 -0.04154153 C48.80009048 -0.0302527 54.24657471 -0.02871683 59.69314575 -0.03416061 C60.46812584 -0.03492678 61.24310592 -0.03569294 62.04157025 -0.03648233 C63.61589394 -0.03808094 65.19021762 -0.03970201 66.76454127 -0.04134528 C81.52938248 -0.05560536 96.2940685 -0.03920605 111.05888426 -0.01234345 C123.7296822 0.00999561 136.40025112 0.00611555 149.07104492 -0.01693726 C163.78279231 -0.04369074 178.49440367 -0.05423204 193.20617199 -0.03887594 C194.77472621 -0.03728318 196.34328045 -0.03571133 197.91183472 -0.03416061 C199.06949328 -0.03300355 199.06949328 -0.03300355 200.25053889 -0.03182311 C205.69099507 -0.02750474 211.13136503 -0.03479558 216.57180786 -0.04655838 C223.20134552 -0.06057695 229.83058716 -0.05679729 236.46009088 -0.03015466 C239.84322106 -0.01700696 243.22544844 -0.01456658 246.60863876 -0.02840042 C250.27458252 -0.04201108 253.93912654 -0.02499127 257.60498047 0 C258.67647119 -0.01115361 259.7479619 -0.02230722 260.85192204 -0.03379881 C268.04036326 0.06162579 268.04036326 0.06162579 271.93983459 2.9949131 C274.14221464 6.11642115 274.80249023 7.81033026 274.80249023 11.63491821 C273.35253593 15.98478112 272.65364348 18.06748272 268.80249023 20.63491821 C266.64027989 20.88906854 266.64027989 20.88906854 264.07444954 20.89498043 C263.09620913 20.90204602 262.11796871 20.90911161 261.11008465 20.91639131 C260.03276825 20.91397623 258.95545185 20.91156114 257.8454895 20.90907288 C256.7030594 20.91430955 255.56062929 20.91954623 254.38358009 20.9249416 C251.20753154 20.93737481 248.03161977 20.94078443 244.85555148 20.94034469 C241.43214304 20.94199072 238.00877513 20.95505315 234.58538818 20.96653748 C227.0978662 20.98940256 219.61037254 20.99730958 212.12282038 21.00236392 C207.44907235 21.00561894 202.77533257 21.01214019 198.1015892 21.01936531 C185.16531451 21.03893255 172.22904748 21.05533625 159.29275703 21.05824184 C158.46468906 21.05842941 157.63662108 21.05861698 156.78346013 21.05881024 C155.10471463 21.05917649 153.42596913 21.05954019 151.74722363 21.05990135 C150.9138747 21.06008416 150.08052576 21.06026697 149.22192383 21.06045532 C147.97037771 21.06072615 147.97037771 21.06072615 146.69354783 21.06100244 C133.1690716 21.06454528 119.64475448 21.09157389 106.12033345 21.12895321 C92.24026346 21.16700904 78.36027248 21.18639912 64.48014915 21.18670136 C56.68478761 21.18728651 48.8896159 21.19581597 41.09430313 21.22469902 C34.45743203 21.2491765 27.82081999 21.25652055 21.18391599 21.24145149 C17.79684044 21.23426766 14.4102768 21.23520209 11.02325821 21.25786209 C7.35287285 21.27817102 3.68382478 21.26785832 0.01345825 21.24964905 C-1.59582418 21.269449 -1.59582418 21.269449 -3.23761737 21.28964895 C-10.43785578 21.20773285 -10.43785578 21.20773285 -14.35669136 18.25274754 C-16.34849491 15.42020211 -16.8760402 14.06086613 -16.82250977 10.63491821 C-16.83540039 9.80991821 -16.84829102 8.98491821 -16.86157227 8.13491821 C-14.55961842 -0.53126097 -7.43027541 -0.07734494 0 0 Z " fill="#FAD807" transform="translate(61.197509765625,245.36508178710938)"/>
<path d="M0 0 C1.80224533 -0.01908669 1.80224533 -0.01908669 3.64089966 -0.03855896 C4.95581894 -0.03203308 6.27073822 -0.0255072 7.62550354 -0.01878357 C9.02683928 -0.0258423 10.4281674 -0.03458712 11.82948303 -0.04489136 C15.63330442 -0.06740157 19.43671004 -0.06444191 23.24057269 -0.05556989 C26.41658036 -0.05046101 29.59250983 -0.05775177 32.76850945 -0.06504196 C40.26143763 -0.08204634 47.75416219 -0.07847004 55.24708557 -0.06175232 C62.97599295 -0.044831 70.70433555 -0.06066403 78.43318123 -0.0929752 C85.07027027 -0.11967051 91.7071835 -0.12694729 98.34432083 -0.11846012 C102.30780416 -0.11353056 106.27094767 -0.11574758 110.23438835 -0.13624763 C113.96188529 -0.15460413 117.68856997 -0.14864772 121.41602325 -0.12404823 C123.43441023 -0.11665335 125.45284041 -0.13389625 127.47116089 -0.15187073 C137.33206901 -0.04826048 137.33206901 -0.04826048 140.41323853 2.87442017 C142.43813045 5.9998412 143.12379456 7.77983649 143.12379456 11.5146637 C141.96123114 15.80161627 141.17167888 17.88663242 137.3160553 20.19743347 C131.78108372 22.35125357 125.89783532 21.93182051 120.04762268 21.90284729 C118.08785744 21.91073273 118.08785744 21.91073273 116.08850098 21.91877747 C112.52029174 21.93240239 108.95234402 21.92717257 105.38413048 21.91764021 C101.64113562 21.91001847 97.89816241 21.91709618 94.15516663 21.92179871 C87.87074281 21.92724896 81.58642493 21.92008387 75.30201721 21.90577698 C68.04752057 21.88945181 60.79327692 21.89474084 53.53878641 21.91125619 C47.29822587 21.92489193 41.05774126 21.92678055 34.81717062 21.91894019 C31.09520416 21.91427511 27.37335643 21.91360657 23.65139771 21.92354965 C19.50076943 21.93386438 15.3505739 21.91954794 11.19996643 21.90284729 C9.97378098 21.90891998 8.74759552 21.91499268 7.48425293 21.92124939 C1.30618515 21.87521945 -3.50658864 21.72091917 -8.87620544 18.5146637 C-11.4016502 14.535175 -12.02662091 12.50072062 -11.31370544 7.8271637 C-8.78729688 2.00543962 -6.3682865 0.01711618 0 0 Z " fill="#F9D807" transform="translate(192.87620544433594,65.48533630371094)"/>
<path d="M0 0 C1.80224533 -0.01908669 1.80224533 -0.01908669 3.64089966 -0.03855896 C4.95581894 -0.03203308 6.27073822 -0.0255072 7.62550354 -0.01878357 C9.02683928 -0.0258423 10.4281674 -0.03458712 11.82948303 -0.04489136 C15.63330442 -0.06740157 19.43671004 -0.06444191 23.24057269 -0.05556989 C26.41658036 -0.05046101 29.59250983 -0.05775177 32.76850945 -0.06504196 C40.26143763 -0.08204634 47.75416219 -0.07847004 55.24708557 -0.06175232 C62.97599295 -0.044831 70.70433555 -0.06066403 78.43318123 -0.0929752 C85.07027027 -0.11967051 91.7071835 -0.12694729 98.34432083 -0.11846012 C102.30780416 -0.11353056 106.27094767 -0.11574758 110.23438835 -0.13624763 C113.96188529 -0.15460413 117.68856997 -0.14864772 121.41602325 -0.12404823 C123.43441023 -0.11665335 125.45284041 -0.13389625 127.47116089 -0.15187073 C137.33206901 -0.04826048 137.33206901 -0.04826048 140.41323853 2.87442017 C142.43813045 5.9998412 143.12379456 7.77983649 143.12379456 11.5146637 C141.96123114 15.80161627 141.17167888 17.88663242 137.3160553 20.19743347 C131.78108372 22.35125357 125.89783532 21.93182051 120.04762268 21.90284729 C118.08785744 21.91073273 118.08785744 21.91073273 116.08850098 21.91877747 C112.52029174 21.93240239 108.95234402 21.92717257 105.38413048 21.91764021 C101.64113562 21.91001847 97.89816241 21.91709618 94.15516663 21.92179871 C87.87074281 21.92724896 81.58642493 21.92008387 75.30201721 21.90577698 C68.04752057 21.88945181 60.79327692 21.89474084 53.53878641 21.91125619 C47.29822587 21.92489193 41.05774126 21.92678055 34.81717062 21.91894019 C31.09520416 21.91427511 27.37335643 21.91360657 23.65139771 21.92354965 C19.50076943 21.93386438 15.3505739 21.91954794 11.19996643 21.90284729 C9.97378098 21.90891998 8.74759552 21.91499268 7.48425293 21.92124939 C1.30618515 21.87521945 -3.50658864 21.72091917 -8.87620544 18.5146637 C-11.4016502 14.535175 -12.02662091 12.50072062 -11.31370544 7.8271637 C-8.78729688 2.00543962 -6.3682865 0.01711618 0 0 Z " fill="#FAD708" transform="translate(192.87620544433594,125.48533630371094)"/>
</svg>
